<svg width="24" height="24" viewBox="0 0 24 24" fill="none" xmlns="http://www.w3.org/2000/svg">
<g clip-path="url(#clip0_216_5271)">
<path d="M15 21.7501H14.25V18.4351C13.5183 18.6442 12.761 18.7502 12 18.7501C11.2389 18.7523 10.4813 18.6462 9.75 18.4351V21.7501C9 21.7501 8.25 21.6826 8.25 22.5001C8.25 23.4601 8.805 23.2501 15 23.2501C15.1989 23.2501 15.3897 23.171 15.5303 23.0304C15.671 22.8897 15.75 22.699 15.75 22.5001C15.75 22.3011 15.671 22.1104 15.5303 21.9697C15.3897 21.8291 15.1989 21.7501 15 21.7501Z" fill="#999999"/>
<path d="M21.75 3.75H18.75V3C18.75 2.40326 18.513 1.83097 18.091 1.40901C17.6691 0.987053 17.0968 0.75 16.5 0.75H7.50002C6.90329 0.75 6.33099 0.987053 5.90903 1.40901C5.48708 1.83097 5.25003 2.40326 5.25003 3V3.75H2.25003C2.05111 3.75 1.86035 3.82902 1.7197 3.96967C1.57904 4.11032 1.50003 4.30109 1.50003 4.5V8.25C1.49624 9.38245 1.91958 10.4747 2.68556 11.3088C3.45154 12.1429 4.50385 12.6575 5.63253 12.75C5.99856 13.7991 6.61791 14.7416 7.43562 15.4939C8.25333 16.2462 9.24411 16.785 10.32 17.0625C11.4254 17.34 12.5822 17.34 13.6875 17.0625C14.7621 16.7839 15.7513 16.2446 16.5676 15.4924C17.384 14.7402 18.0022 13.7982 18.3675 12.75C19.4962 12.6575 20.5485 12.1429 21.3145 11.3088C22.0805 10.4747 22.5038 9.38245 22.5 8.25V4.5C22.5 4.30109 22.421 4.11032 22.2804 3.96967C22.1397 3.82902 21.9489 3.75 21.75 3.75ZM3.00003 8.25V5.25H5.25003V10.5C5.23883 10.7174 5.23883 10.9351 5.25003 11.1525C4.60643 10.9863 4.03624 10.6111 3.629 10.0858C3.22176 9.56042 3.00052 8.9147 3.00003 8.25ZM21 8.25C20.9995 8.9147 20.7783 9.56042 20.371 10.0858C19.9638 10.6111 19.3936 10.9863 18.75 11.1525C18.7612 10.9351 18.7612 10.7174 18.75 10.5V5.25H21V8.25Z" fill="#999999"/>
</g>
<defs>
<clipPath id="clip0_216_5271">
<rect width="24" height="24" fill="white"/>
</clipPath>
</defs>
</svg>
